<?xml version="1.0" ?><svg id="Layer_1" style="enable-background:new 0 0 128 128;" version="1.1" viewBox="0 0 128 128" xml:space="preserve" xmlns="http://www.w3.org/2000/svg" xmlns:xlink="http://www.w3.org/1999/xlink"><style type="text/css">
	.st0{fill:#FFF;}
	.st1{fill:#FFF;}
	.st2{fill:#FFF;}
	.st3{fill:#FFF;}
	.st4{fill:#FFF;}
	.st5{fill:#FFFFFF;}
	.st6{fill:#FFF;}
	.st7{fill:#FFF;}
	.st8{fill:#FFF;}
	.st9{fill:none;stroke:#FFF;stroke-width:6;stroke-linecap:round;stroke-linejoin:round;stroke-miterlimit:10;}
	.st10{fill:#FFF;stroke:#FFF;stroke-width:6;stroke-linecap:round;stroke-linejoin:round;stroke-miterlimit:10;}
	.st11{fill:#FFF;}
	.st12{fill:#FFF;}
	.st13{fill:#FFF;}
	.st14{fill:none;stroke:#FFF;stroke-width:6;stroke-linecap:round;stroke-linejoin:round;stroke-miterlimit:10;}
</style><path class="st1" d="M103.39,15.34c-0.99-0.52-2.18-0.44-3.1,0.19c-8.95,6.2-14.92,15.94-16.38,26.73l-2.87,21.21l-0.02,0.09  c-0.36,1.62,0.66,3.22,2.28,3.58c2.79,0.62,4.76,3.14,4.69,6.01C87.92,76.37,85.07,79,81.65,79h-3c-0.5,0-1,0.03-1.49,0.08  c-0.09-0.18-0.17-0.37-0.26-0.56l-2.48-4.82C69.56,64.26,67,53.67,67,43.05V4c0-1.66-1.34-3-3-3s-3,1.34-3,3v39.05  c0,10.61-2.56,21.21-7.42,30.64l-2.48,4.82c-0.09,0.18-0.17,0.37-0.26,0.56C50.35,79.03,49.85,79,49.35,79h-3  c-3.42,0-6.27-2.63-6.35-5.85c-0.07-2.86,1.91-5.39,4.69-6.01c1.62-0.36,2.64-1.96,2.28-3.58l-2.89-21.3  c-1.46-10.79-7.43-20.54-16.38-26.73c-0.92-0.63-2.11-0.71-3.1-0.19C23.62,15.86,23,16.88,23,18v79c0,1.66,1.34,3,3,3h12  c1.66,0,3-1.34,3-3s-1.34-3-3-3h-9V24.43c4.94,5.02,8.19,11.57,9.14,18.64l2.59,19.15c-4.13,2.02-6.84,6.31-6.73,11.07  C34.16,79.75,39.7,85,46.35,85h2.27c-2.34,8.72-1.05,18.21,3.8,26.02l9.04,14.57C62,126.46,62.96,127,64,127s2-0.54,2.55-1.42  l9.04-14.57c4.84-7.8,6.13-17.29,3.8-26.02h2.27C88.3,85,93.84,79.75,94,73.29c0.11-4.76-2.6-9.05-6.73-11.07l2.59-19.15  C90.81,36,94.06,29.46,99,24.43V94H89c-1.66,0-3,1.34-3,3s1.34,3,3,3h13c1.66,0,3-1.34,3-3V18C105,16.88,104.38,15.86,103.39,15.34z   M58.92,76.44c2.09-4.06,3.79-8.32,5.08-12.7c1.29,4.38,2.99,8.64,5.08,12.7l2.16,4.21c-2.94,1.37-5.45,3.5-7.25,6.17  c-1.8-2.67-4.31-4.8-7.25-6.17L58.92,76.44z M70.49,107.85L64,118.31l-6.49-10.46c-4.03-6.49-5.06-14.41-3.02-21.64  c3.85,1.9,6.51,5.86,6.51,10.44v6c0,1.66,1.34,3,3,3s3-1.34,3-3v-6c0-4.58,2.66-8.53,6.51-10.44  C75.55,93.44,74.52,101.36,70.49,107.85z"/></svg>